# xmcd CD database file
#
# Track frame offsets:
#	150
#	25674
#	35752
#	49161
#	73289
#	82419
#	98135
#	116042
#	132851
#
# Disc length: 2088 seconds
#
# Revision: 1
# Processed by: cddbd v1.5.2PL0 Copyright (c) Steve Scherf et al.
# Submitted via: CDex 1.50beta10
#
DISCID=82082609
DTITLE=The Flaming Lips - Embryonic [CD2]
DYEAR=2009
DGENRE=Alternative
TTITLE0=The Egos Last Stand
TTITLE1=I Can Be Frog
TTITLE2=Sagittarius Silver Announcement
TTITLE3=Worm Mountain
TTITLE4=Scorpio Sword
TTITLE5=The Impulse
TTITLE6=Silver Tremblingehands
TTITLE7=Virgo Self-Esteem Broadcast
TTITLE8=Watching the Planets
EXTD=YEAR: 2009
EXTT0=
EXTT1=
EXTT2=
EXTT3=
EXTT4=
EXTT5=
EXTT6=
EXTT7=
EXTT8=
PLAYORDER=
